<?xml version="1.0" encoding="UTF-8" standalone="no"?>
<svg
   xmlns:dc="http://purl.org/dc/elements/1.1/"
   xmlns:cc="http://creativecommons.org/ns#"
   xmlns:rdf="http://www.w3.org/1999/02/22-rdf-syntax-ns#"
   xmlns:svg="http://www.w3.org/2000/svg"
   xmlns="http://www.w3.org/2000/svg"
   xmlns:sodipodi="http://sodipodi.sourceforge.net/DTD/sodipodi-0.dtd"
   xmlns:inkscape="http://www.inkscape.org/namespaces/inkscape"
   version="1.1"
   x="0px"
   y="0px"
   viewBox="0 0 100 125"
   enable-background="new 0 0 100 100"
   xml:space="preserve"
   id="svg3781"
   sodipodi:docname="cc-by.svg"
   inkscape:version="0.92.2 5c3e80d, 2017-08-06"><metadata
     id="metadata3787"><rdf:RDF><cc:Work
         rdf:about=""><dc:format>image/svg+xml</dc:format><dc:type
           rdf:resource="http://purl.org/dc/dcmitype/StillImage" /></cc:Work></rdf:RDF></metadata><defs
     id="defs3785" /><sodipodi:namedview
     pagecolor="#ffffff"
     bordercolor="#666666"
     borderopacity="1"
     objecttolerance="10"
     gridtolerance="10"
     guidetolerance="10"
     inkscape:pageopacity="0"
     inkscape:pageshadow="2"
     inkscape:window-width="1299"
     inkscape:window-height="820"
     id="namedview3783"
     showgrid="false"
     inkscape:zoom="1.888"
     inkscape:cx="50"
     inkscape:cy="62.5"
     inkscape:window-x="383"
     inkscape:window-y="147"
     inkscape:window-maximized="0"
     inkscape:current-layer="svg3781" /><path
     d="M50,92.929C26.329,92.929,7.071,73.671,7.071,50S26.329,7.071,50,7.071S92.929,26.329,92.929,50S73.671,92.929,50,92.929z   M50,10.571c-21.741,0-39.429,17.688-39.429,39.429S28.259,89.429,50,89.429S89.429,71.741,89.429,50S71.741,10.571,50,10.571z   M56.845,84.415H43.19c-0.967,0-1.75-0.784-1.75-1.75v-22.83h-3.844c-0.028,0-2.799-0.16-2.799-2.141V37.558  c0-4.795,2.885-5.802,5.306-5.802h7.014c-3.21-1.186-5.505-4.277-5.505-7.894c0-4.638,3.773-8.411,8.411-8.411  s8.41,3.773,8.41,8.411c0,3.617-2.295,6.708-5.504,7.894h6.836c3.404,0,5.437,2.169,5.437,5.802v20.137  c0,1.321-1.249,1.814-1.731,2.001c-0.214,0.091-0.446,0.139-0.685,0.139h-4.432l0.24,22.811c0.005,0.467-0.178,0.917-0.506,1.25  C57.76,84.228,57.312,84.415,56.845,84.415z M44.94,80.915h10.136l-0.24-22.811c-0.005-0.467,0.178-0.917,0.506-1.25  c0.329-0.332,0.776-0.519,1.244-0.519h5.116V37.558c0-2.132-0.839-2.302-1.937-2.302H40.104c-1.22,0-1.806,0.098-1.806,2.302v18.777  h4.893c0.967,0,1.75,0.784,1.75,1.75V80.915z M50.023,18.952c-2.708,0-4.911,2.203-4.911,4.911c0,2.708,2.203,4.911,4.911,4.911  c2.707,0,4.91-2.203,4.91-4.911C54.934,21.155,52.73,18.952,50.023,18.952z"
     id="path3775"
     style="fill:#ffffff" /><text
     x="0"
     y="115"
     fill="#000000"
     font-size="5px"
     font-weight="bold"
     font-family="'Helvetica Neue', Helvetica, Arial-Unicode, Arial, Sans-serif"
     id="text3777"
     style="fill:#ffffff;">Created by H Alberto Gongora</text>
<text
     x="0"
     y="120"
     fill="#000000"
     font-size="5px"
     font-weight="bold"
     font-family="'Helvetica Neue', Helvetica, Arial-Unicode, Arial, Sans-serif"
     id="text3779"
     style="fill:#ffffff;">from the Noun Project</text>
</svg>