<svg width="97" height="35" fill="none" xmlns="http://www.w3.org/2000/svg"><path d="M1.808 1.817H94.37c.547 0 .988.441.988.988v21.859H28.984A14.214 14.214 0 0 1 16.52 32.02c-5.36 0-10.025-2.985-12.464-7.356H.82V2.804c0-.546.441-.987.988-.987zM94.35.997H1.808C.798.997 0 1.817 0 2.805v31.443c0 .231.19.4.4.4h95.337a.4.4 0 0 0 .4-.4V2.805A1.776 1.776 0 0 0 94.35.997z" fill="#fff"/><path d="M59.06 31.642c.106 0 .232-.021.337-.043.105-.02.19-.063.273-.105a.597.597 0 0 0 .19-.21.801.801 0 0 0 .063-.336c0-.273-.085-.462-.232-.588-.147-.127-.357-.169-.61-.169H57.8v1.45h1.26zm-.062-2.25c.21 0 .378-.041.504-.146.126-.106.21-.253.21-.484a.557.557 0 0 0-.063-.294.413.413 0 0 0-.189-.19.514.514 0 0 0-.252-.083c-.105-.021-.19-.021-.294-.021H57.82v1.24h1.177v-.021zm.147-2.143c.252 0 .483.02.693.063.21.042.379.126.547.21a.885.885 0 0 1 .336.4c.084.168.126.378.126.63 0 .273-.063.483-.189.672a1.483 1.483 0 0 1-.546.442c.336.084.567.252.735.483.169.232.231.526.231.862 0 .273-.042.505-.147.694-.105.189-.252.357-.42.483-.168.126-.378.21-.61.273a2.613 2.613 0 0 1-.693.084h-2.585V27.25h2.522zM61.31 27.249h1.303l1.24 2.102 1.24-2.102h1.303l-1.976 3.258v2.038h-1.177v-2.06L61.31 27.25z" fill="#0E0534"/><path d="M21.922 15.5c-.315-.673-.778-1.03-1.387-1.03-1.135 0-1.703.735-1.703 2.228 0 1.492.568 2.228 1.703 2.228.735 0 1.24-.358 1.534-1.093l1.556.82c-.736 1.303-1.83 1.954-3.28 1.954-1.113 0-2.017-.357-2.71-1.03-.652-.693-.989-1.64-.989-2.858 0-1.198.337-2.144 1.03-2.838.694-.693 1.556-1.05 2.628-1.05 1.534 0 2.648.609 3.32 1.828l-1.702.84zm-7.188 0c-.316-.694-.799-1.03-1.408-1.03-1.114 0-1.66.735-1.66 2.228 0 1.492.546 2.228 1.66 2.228.735 0 1.26-.358 1.555-1.093l1.534.82c-.735 1.303-1.828 1.954-3.279 1.954-1.134 0-2.017-.357-2.71-1.03-.673-.693-1.03-1.64-1.03-2.858 0-1.198.357-2.144 1.05-2.838.694-.693 1.577-1.05 2.606-1.05 1.535 0 2.649.609 3.321 1.828l-1.64.84zM9.332 9.446c-2.039 2.06-3.068 4.498-3.068 7.273 0 2.774 1.008 5.17 3.047 7.209 2.018 2.018 4.435 3.047 7.251 3.047 2.796 0 5.234-1.03 7.294-3.068 1.954-1.892 2.942-4.288 2.942-7.188 0-2.859-1.009-5.297-3.005-7.294-1.997-1.996-4.414-2.984-7.252-2.984-2.837 0-5.233 1.009-7.209 3.005zm16.079-1.639c2.417 2.417 3.636 5.402 3.636 8.89 0 3.51-1.198 6.453-3.573 8.807-2.522 2.48-5.507 3.741-8.954 3.741-3.405 0-6.347-1.24-8.806-3.699-2.46-2.459-3.7-5.401-3.7-8.848 0-3.426 1.24-6.39 3.7-8.891 2.396-2.417 5.317-3.636 8.785-3.636 3.51 0 6.474 1.219 8.912 3.636zM63.6 10.707a.61.61 0 0 0-.609-.61h-3.804a.61.61 0 0 0-.61.61v3.804h1.051v4.498h2.88v-4.498h1.05v-3.804M62.403 8.311a1.31 1.31 0 0 1-1.304 1.304 1.31 1.31 0 0 1-1.303-1.304A1.31 1.31 0 0 1 61.1 7.008a1.31 1.31 0 0 1 1.304 1.303z" fill="#fff"/><path d="M61.12 5.39c2.103 0 3.89.736 5.381 2.228 1.493 1.471 2.228 3.279 2.228 5.38 0 2.145-.735 3.91-2.186 5.318-1.534 1.514-3.341 2.27-5.422 2.27-2.081 0-3.867-.756-5.38-2.249-1.514-1.492-2.25-3.278-2.25-5.338s.757-3.847 2.27-5.38c1.471-1.493 3.237-2.229 5.36-2.229zM61.1 3.71c-2.585 0-4.75.904-6.537 2.69-1.828 1.85-2.753 4.057-2.753 6.6 0 2.543.925 4.729 2.753 6.557 1.829 1.829 4.015 2.733 6.537 2.733 2.564 0 4.77-.925 6.642-2.775 1.765-1.744 2.648-3.93 2.648-6.536 0-2.607-.904-4.792-2.69-6.6-1.808-1.765-3.994-2.67-6.6-2.67z" fill="#fff"/></svg>